<?xml version="1.0" encoding="utf-8"?>
<!-- Generator: Adobe Illustrator 25.0.0, SVG Export Plug-In . SVG Version: 6.00 Build 0)  -->
<svg version="1.1" id="Layer_1" xmlns="http://www.w3.org/2000/svg" xmlns:xlink="http://www.w3.org/1999/xlink" x="0px" y="0px"
	 viewBox="0 0 1920 1080" style="enable-background:new 0 0 1920 1080;" xml:space="preserve">
<style type="text/css">
	.st0{fill:#FFFFFF;}
</style>
<g id="Layer_1">
	<g>
		<g>
			<path class="st0" d="M1466.88,579.64c-4.33,9.17-7.64,17.66-13.9,24.73c-2.87,3.25-5.74,6.5-8.76,9.6
				c-3.79,3.9-12.17,9.26-18.44,12.78c-3.77,2.12-7.6,3.98-11.48,5.86c-5.42,2.63-11.08,4.2-16.83,5.55
				c-4.82,1.13-9.8,1.71-14.63,2.62c-8.22,1.54-16.39,1.1-24.48,0.66c-5.69-0.31-11.7-0.71-17.18-3.08
				c-7.48,0.01-14-3.57-20.66-6.11c-7.19-2.74-13.89-6.82-20.18-11.44c-5.09-3.74-9.39-8.29-13.84-12.71
				c-6.13-6.08-10.48-14.01-14.59-23.45c-2.51-5.77-3.69-11.67-4.8-17.86c-0.4-0.38-0.93-0.88-1.48-1.39
				c-3.55,6.92-6.2,14.23-10.94,20.43c-1.31,1.72-1.98,4.08-3.57,5.4c-4.62,3.83-7.21,9.35-12.35,12.93
				c-5.11,3.56-9.66,7.97-15.08,11.27c-4.92,3-9.9,5.76-15.11,8.28c-6.82,3.31-13.84,5.84-21.04,7.97
				c-4.15,1.23-8.42,2.07-12.65,3.06c-2.82,0.66-5.66,1.26-8.49,1.89c-0.53,0.12-1.05,0.44-1.56,0.41
				c-5.31-0.31-10.55,0.87-15.72,1.49c-5.69,0.68-11.3,0.66-16.95,0.81c-5.79,0.16-11.59,0.03-17.39,0.03c-0.76,0-1.51,0-2.51,0
				c0-21.96,0-43.82,0-65.9c8.58,0,17.06,0.13,25.53-0.07c3.14-0.07,6.3,0.75,9.5-0.81c2.59-1.26,6.02,0.68,8.67-1.44
				c6.54,0.1,12.37-2.7,18.33-4.73c5.26-1.79,10.11-4.64,14.72-7.82c4.51-3.11,8.52-6.73,11.34-11.43c1.74-2.89,3.43-5.96,4.34-9.17
				c1.39-4.93,2.56-9.89,2.52-15.2c-0.21-25.43-0.1-50.86-0.1-76.3c0-1.9,0-3.79,0-5.84c-39.81,0-79.37,0-119.33,0
				c0,66.46,0,133.02,0,199.71c-22.18,0-43.96,0-66.15,0c0-66.54,0-133.09,0-199.76c-55.42,0-110.44,0-165.67,0
				c0,10.97,0,21.9,0,33.05c-0.08-0.08,0.04,0.08,0.2,0.18c0.15,0.09,0.33,0.17,0.5,0.17c34.59,0.01,69.18,0.01,103.77,0.02
				c0.16,0,0.32,0.14,0.66,0.3c0,21.63,0,43.35,0,65.33c-27.05,0-54.23,0-81.44,0c-29.9-22.58-59.95-45.27-89.96-67.94
				c0-10.5,0-20.65,0-31.02c-13.86,0-27.53,0-41.19,0c-28.94-21.79-57.78-43.51-87.45-65.85c224.38,0,447.66,0,671.28,0
				c0,1.85,0,3.74,0,5.62c0,55.68-0.01,111.36,0.01,167.05c0,4.67-0.56,9.41,1.69,14.32c2.73,2.01,5.1,5.18,8.41,7.54
				c3.87,2.76,8.2,3.75,12.41,5.12c7.18,2.34,14.85,1.96,22.06,1c8.84-1.18,17.51-4.12,23.49-11.61c1.45-1.82,2.49-3.97,3.92-6.29
				c0-60.7,0-121.72,0-182.89c42.85,0,85.5,0,128.56,0c0,27.61,0,55.25,0,84.23c21.65-28.73,42.5-56.4,63.47-84.24
				c106.08,0,212.5,0,319.91,0c-3.41,2.42-6.08,4.38-8.82,6.25c-7.85,5.35-15.87,10.46-23.39,16.3c-4.44,3.45-9.39,6.25-14.01,9.48
				c-7.63,5.33-15.68,10.06-23.01,15.86c-4.55,3.6-9.62,6.55-14.46,9.8c-3.79,2.55-7.58,5.11-11.94,8.05c-35.38,0-71.46,0-107.17,0
				c-1.92,1.12-2,2.55-1.99,4.17c0.06,9.24,0.03,18.48,0.03,27.67c0.6,0.6,1.15,1.14,1.89,1.89c34.72,0,69.64,0,104.68,0
				c0,21.92,0,43.63,0,65.55c-34.99,0-69.91,0-104.63,0c-0.75,0.75-1.29,1.29-1.78,1.78c0,10.6,0,21.14,0,31.88
				c36.24,0,72.32,0,108.62,0c0,21.91,0,43.62,0,65.38c-4.8,0.93-193.68,1.33-216.05,0.42c-23.59-28.52-47.11-56.94-70.63-85.37
				c-0.18,0.14-0.34,0.23-0.45,0.36c-0.11,0.14-0.21,0.32-0.21,0.48c-0.01,68.95-0.01,137.9-0.65,207.08c-0.67-1.4-1.28-2.82-2-4.19
				c-4.13-7.74-8.12-15.55-12.48-23.16c-3.47-6.07-6.22-12.51-9.75-18.5c-3.56-6.04-6.5-12.37-9.89-18.48
				c-3.04-5.48-5.9-11.05-8.86-16.57c-3.22-6-6.47-11.99-9.71-17.99c-3.06-5.67-6.09-11.36-9.18-17.02
				c-1.12-2.05-2.96-3.9-3.43-6.07c-0.6-2.76-0.15-5.75-0.15-8.64c0-15.41,0-30.83,0-46.24
				C1466.88,583.45,1466.88,581.97,1466.88,579.64z M1579.34,506.41c2.16,2.83,3.7,5.18,5.57,7.24
				c6.14,6.79,11.86,13.92,17.63,21.01c5.1,6.26,10.61,12.19,15.92,18.28c2.34,2.68,5,5.17,6.88,8.15c2.5,3.97,6,7.06,8.74,10.79
				c3.08,4.18,6.93,7.76,9.82,12.12c0.4,0.61,1.41,0.81,2.71,1.5c0-55.49,0-110.31-0.01-165.13c0-0.14-0.2-0.31-0.35-0.42
				c-0.14-0.11-0.32-0.16-0.78-0.37c-1.9,2.25-3.95,4.5-5.8,6.92c-2.78,3.64-5.06,7.7-8.17,11.02c-5.36,5.73-9.65,12.28-14.48,18.39
				c-6.16,7.78-12.18,15.7-18.21,23.6c-1.8,2.35-3.73,4.61-5.53,6.96c-3.37,4.38-6.83,8.69-9.96,13.23
				C1581.81,501.9,1579.16,503.54,1579.34,506.41z"/>
			<path class="st0" d="M694.63,446.79c0,9.08,0,17.93,0,27.03c12.14,0,24.25,0,35.99,0c41.87,31.54,83.38,62.82,125.04,94.22
				c0,1.62,0,3.3,0,5.22c2.63,0,5.09,0,6.87,0c29.41,22.14,58.27,43.87,87.14,65.61c-0.1,0.09-0.22,0.25-0.38,0.35
				c-0.15,0.09-0.33,0.17-0.5,0.17C827.62,639.4,706.45,639.4,585,639.4c-3.68-3.67-6.89-7.97-10.11-12.29
				c-2-2.68-4.51-4.97-6.59-7.67c-4.33-5.64-9.47-10.67-13.77-16.34c-4.37-5.77-9.53-10.88-13.68-16.85
				c-2.46-3.53-5.84-6.41-8.49-9.82c-4.67-6.02-10.08-11.42-14.45-17.7c-1.59-2.29-3.95-4.05-6.53-6.63c0,2.56,0,4.43,0,6.31
				c0,25.82-0.01,51.64,0.02,77.46c0,2.65-0.56,4.91-1.93,7.32c-4.61,8.08-8.81,16.39-13.17,24.61c-3.02,5.69-6.03,11.38-9.07,17.06
				c-3.13,5.84-6.3,11.65-9.42,17.5c-3.03,5.68-6.02,11.39-9.02,17.08c-3.42,6.49-6.8,13-10.26,19.46c-3.21,6-6.51,11.96-9.78,17.93
				c-0.52,0.95-1.15,1.84-1.68,2.78c-0.43,0.76-0.8,1.57-1.64,3.22c0-107.91,0-214.93,0-322.11c-19.47,0-38.55,0-57.72,0
				c-0.45,0.45-1,0.99-1.56,1.55c0,65.88,0,131.77,0,197.66c-4.72,0.92-47.04,1.21-64.77,0.44c0-66.41,0-132.83,0-199.53
				c-13.61,0-27.02,0-40.77,0c0,0.88-0.2,1.86,0.03,2.71c2.27,8.3,2.59,16.94,4.16,25.72c-1.74,0.47-3.99,0.13-6.2,0.18
				c-13.18,0.26-26.32,1.88-39.52,1.17c-5.92,2.03-12.05,0.79-18.58,1.26c-0.83-3.24-2-6.46-2.44-9.78
				c-0.9-6.72-4.18-11.57-10.12-14.84c-4.17-2.29-8.5-3.61-13.18-4.69c-4.81-1.11-9.51-1.09-14.06-0.64
				c-5.1,0.51-10.21,1.9-15.12,3.9c-4.81,1.96-7.69,5.88-10.88,8.69c-0.55,1.68-0.93,2.86-1.64,5.02c0,1.23,0,3.55,0,5.25
				c2.89,7.47,9.3,9.02,15.55,10.35c5.58,1.19,11.17,2.6,16.99,2.45c2.37-0.06,4.48,1.56,7.07,1.19c2.35-0.33,4.89-0.49,7.04,1.07
				c3.83-0.86,7.34,1.28,11.12,1.22c1.38-0.02,2.76,0.78,4.16,1.08c16.28,3.52,21.11,4.54,37.88,13.47
				c3.68,1.96,7.26,4.27,10.43,6.95c8.89,7.53,16.1,16.54,20.39,27.38c2.1,5.31,3.52,10.96,4.14,16.87
				c0.52,4.87,0.86,9.71,0.89,14.58c0.06,12.06-2.91,23.38-8.61,34.01c-2.77,5.16-6.35,9.76-9.66,14.56
				c-3.76,5.44-9.23,8.74-13.71,13.23c-2.29,2.3-5.18,4.09-8.02,5.74c-3.86,2.25-7.92,4.17-11.92,6.17c-4,1.99-8.49,2.86-12.28,5.32
				c-5.9,0.2-11.03,3.93-17.06,3.64c-2.2-0.11-4.09,1.54-6.49,1.21c-1.96-0.27-3.92,0.28-5.95,0.85c-3.04,0.86-6.52,0.42-9.79,0.17
				c-3.15-0.25-6.47,1.12-9.46-0.94c-0.4-0.28-1.1-0.17-1.66-0.15c-4.86,0.18-9.44-1.37-14.14-2.14
				c-7.04-1.16-13.63-3.57-20.12-6.12c-5.97-2.35-11.44-5.96-17.07-9.12c-1.9-1.07-3.65-2.43-5.4-3.76
				c-8.69-6.6-15.68-14.58-21.3-24.02c-3.08-5.17-5.21-10.58-7.28-16.09c-0.88-2.34-1.18-4.9-1.85-7.33c-1.6-5.74-1-11.61-1.2-17.44
				c-0.07-2.16-0.87-4.29-1.07-6.46c-0.19-2.1-0.04-4.24-0.04-6.78c2.02-0.06,4.14,0.21,6.11-0.23c9.26-2.06,18.63-0.85,27.94-1.05
				c9.27-0.21,18.55-0.05,27.83-0.05c1.31,0,2.63,0,4.28,0c-0.47,7.76,0.46,15.1,2.54,22.76c5.49,6.46,12.91,10.42,21.72,11.94
				c1.22,0.21,2.38,1.05,3.58,1.08c5.6,0.12,11.43,1.04,16.76-0.18c8.02-1.83,16.08-4.31,22.33-10.39c2.19-2.13,3.29-4.82,4.91-7.96
				c0-0.65,0.01-1.99,0-3.33c-0.06-4.66-2.4-8.1-7.08-9.23c-5.84-1.4-11.52-3.3-17.65-3.77c-3.48-0.27-7.37,0.05-10.46-1.16
				c-3.69-1.46-7.26,0.06-10.59-1.03c-2.39-0.78-4.68-1.09-7.1-1.03c-2.62,0.07-4.86-1.58-7.65-1.31c-2.27,0.22-4.88-0.53-6.97-1.22
				c-4.95-1.64-10.12-2.36-15.01-4.3c-4.65-1.85-9.33-3.63-13.77-5.92c-9.02-4.66-17.27-10.55-23.55-18.49
				c-5.8-7.33-9.96-15.74-12.39-24.9c-1.18-4.44-1.76-8.95-2.47-13.47c-0.86-5.46-1.83-11.05-0.76-16.27
				c1.49-7.24,0.5-14.37,0.87-21.54c0.11-2.14-0.54-4.31-0.76-5.91c-28.59-18.17-56.69-36.03-85.06-54.06
				c1.53-0.09,2.96-0.24,4.38-0.24c182.81-0.01,365.62-0.03,548.44,0.09c6.16,0,12.25,1.76,18.35,3.07
				c8.3,1.78,15.58,5.4,22.86,9.27c4.38,2.32,8.79,4.76,12.05,8.6c1.54,1.81,3.77,2.68,5.16,4.66c1.3,1.86,3.12,3.34,4.66,5.03
				c3.93,4.31,6.76,9.39,10.25,14.94c0-7.85,0-15.07,0-23.14c6.38,3.96,11.47,8.35,16.91,12.21c5.71,4.06,11.19,8.44,16.79,12.65
				c5.44,4.1,10.94,8.13,16.36,12.25C683.9,438.44,689.3,442.66,694.63,446.79z M694.69,573.3c31.95,0,63.37,0,94.99,0
				c0-10.95,0-21.7-0.01-32.46c0-0.17-0.1-0.35-0.2-0.49c-0.11-0.15-0.27-0.26-0.2-0.19c-31.64,0-63.06,0-94.58,0
				C694.69,551.28,694.69,562.2,694.69,573.3z M511.49,488.65c0.26,0.21,0.4,0.43,0.54,0.43c13.14,0.02,26.28,0.07,39.41-0.03
				c2.71-0.02,5.35-0.91,7.82-2.06c5.32-2.48,9.41-6.09,11.82-11.67c2.42-5.61,2.17-11.39,1.36-17.07
				c-0.43-3.04-2.06-6.25-4.03-8.65c-4.91-5.97-11.49-9.05-19.35-9.06c-10.63-0.02-21.25,0-31.88,0c-1.89,0-3.77,0-5.69,0
				C511.49,456.88,511.49,472.81,511.49,488.65z M628.25,509.68c-2.85,3.65-5.69,6.64-7.76,10.08c-3.13,5.18-7.63,9.12-12.1,12.79
				c-4.85,3.97-10.03,7.78-15.88,10.42c-0.58,0.26-0.91,1.07-1.35,1.62c12.42,14.77,24.64,29.31,37.1,44.13
				C628.25,562.36,628.25,536.27,628.25,509.68z"/>
			<path class="st0" d="M964.57,603.65c-13.23-10-26.2-19.81-39.55-29.9c13.4,0,26.4,0,39.55,0
				C964.57,583.61,964.57,593.5,964.57,603.65z"/>
		</g>
	</g>
</g>
</svg>
